<svg width="17" height="16" viewBox="0 0 17 16" fill="none" xmlns="http://www.w3.org/2000/svg">
<g clip-path="url(#clip0_4382_34300)">
<path d="M15.682 5.14824C15.3694 4.78797 14.983 4.49909 14.5491 4.30114C14.1151 4.10319 13.6437 4.0008 13.1667 4.0009H10.5073L10.7313 2.64024C10.8106 2.16108 10.715 1.66939 10.4619 1.25486C10.2088 0.840332 9.81521 0.530578 9.3528 0.382097C8.89038 0.233617 8.39 0.256303 7.94292 0.44602C7.49584 0.635736 7.13184 0.97984 6.91733 1.41557L5.64133 4.0009H3.83333C2.9496 4.00196 2.10237 4.35349 1.47748 4.97838C0.852588 5.60327 0.501059 6.45051 0.5 7.33424L0.5 10.6676C0.501059 11.5513 0.852588 12.3985 1.47748 13.0234C2.10237 13.6483 2.9496 13.9998 3.83333 14.0009H12.7C13.5023 13.9976 14.2768 13.7064 14.8825 13.1803C15.4883 12.6542 15.8851 11.9282 16.0007 11.1342L16.4707 7.8009C16.5369 7.32806 16.5007 6.84651 16.3646 6.38886C16.2286 5.9312 15.9958 5.50811 15.682 5.14824ZM1.83333 10.6676V7.33424C1.83333 6.8038 2.04405 6.2951 2.41912 5.92002C2.79419 5.54495 3.3029 5.33424 3.83333 5.33424H5.16667V12.6676H3.83333C3.3029 12.6676 2.79419 12.4569 2.41912 12.0818C2.04405 11.7067 1.83333 11.198 1.83333 10.6676ZM15.1473 7.61357L14.6767 10.9469C14.6079 11.4229 14.3705 11.8584 14.0077 12.1742C13.645 12.4899 13.1809 12.665 12.7 12.6676H6.5V5.1569C6.56283 5.10217 6.61484 5.03614 6.65333 4.96224L8.11267 2.00557C8.16739 1.90686 8.24476 1.82254 8.33842 1.75954C8.43207 1.69655 8.53934 1.65668 8.6514 1.64321C8.76346 1.62974 8.87712 1.64305 8.98304 1.68205C9.08896 1.72106 9.1841 1.78464 9.26067 1.86757C9.32617 1.94373 9.37405 2.03341 9.4009 2.13021C9.42775 2.22701 9.43291 2.32855 9.416 2.42757L9.064 4.5609C9.04855 4.65622 9.05399 4.75376 9.07995 4.84677C9.10591 4.93978 9.15176 5.02604 9.21433 5.09959C9.27691 5.17313 9.35472 5.23221 9.44237 5.27272C9.53003 5.31324 9.62544 5.33422 9.722 5.33424H13.1667C13.4529 5.3342 13.7359 5.39561 13.9964 5.51433C14.2569 5.63305 14.4888 5.80631 14.6766 6.02239C14.8644 6.23848 15.0036 6.49235 15.0848 6.76686C15.166 7.04137 15.1873 7.33011 15.1473 7.61357Z" fill="#FFA500"/>
</g>
<defs>
<clipPath id="clip0_4382_34300">
<rect width="16" height="16" fill="white" transform="translate(0.5)"/>
</clipPath>
</defs>
</svg>
