<svg width="17" height="16" viewBox="0 0 17 16" fill="none" xmlns="http://www.w3.org/2000/svg">
<g clip-path="url(#clip0_4382_33699)">
<path d="M15.6827 5.14824C15.37 4.78797 14.9837 4.49909 14.5497 4.30114C14.1157 4.10319 13.6443 4.0008 13.1673 4.0009H10.508L10.732 2.64024C10.8112 2.16108 10.7156 1.66939 10.4626 1.25486C10.2095 0.840332 9.81586 0.530578 9.35345 0.382097C8.89103 0.233617 8.39065 0.256303 7.94357 0.44602C7.49649 0.635736 7.1325 0.97984 6.91798 1.41557L5.83398 3.61224V14.0009H12.7007C13.503 13.9976 14.2774 13.7064 14.8832 13.1803C15.4889 12.6542 15.8857 11.9282 16.0013 11.1342L16.4713 7.8009C16.5378 7.32805 16.5017 6.84644 16.3657 6.38874C16.2296 5.93105 15.9966 5.50797 15.6827 5.14824Z" fill="#FFA500"/>
<path d="M0.5 7.33333V10.6667C0.501059 11.5504 0.852588 12.3976 1.47748 13.0225C2.10237 13.6474 2.9496 13.9989 3.83333 14H4.5V4H3.83333C2.9496 4.00106 2.10237 4.35259 1.47748 4.97748C0.852588 5.60237 0.501059 6.4496 0.5 7.33333Z" fill="#FFA500"/>
</g>
<defs>
<clipPath id="clip0_4382_33699">
<rect width="16" height="16" fill="white" transform="translate(0.5)"/>
</clipPath>
</defs>
</svg>
